<?xml version="1.0" encoding="UTF-8" standalone="no"?>

<svg
   width="600.07782"
   height="600.07782"
   viewBox="0 0 18.002335 18.002335"
   fill="none"
   version="1.1"
   id="svg1"
   xmlns="http://www.w3.org/2000/svg"
   xmlns:svg="http://www.w3.org/2000/svg">
  <defs
     id="defs1" />
  <path
     d="m 17.002335,1 -8,8 m 8,-8 v 4.5 m 0,-4.5 h -4.5 m 3.5,8.5 v 4.3 c 0,1.1201 0,1.6802 -0.218,2.108 -0.1917,0.3763 -0.4977,0.6823 -0.874,0.874 -0.4278,0.218 -0.9879,0.218 -2.108,0.218 h -8.6 c -1.1201,0 -1.68016,0 -2.10798,-0.218 C 1.718025,16.5903 1.412065,16.2843 1.220325,15.908 1.002335,15.4802 1.002335,14.9201 1.002335,13.8 V 5.2 c 0,-1.1201 0,-1.68016 0.21799,-2.10798 0.19174,-0.37633 0.4977,-0.68229 0.87403,-0.87403 C 2.522175,2 3.082225,2 4.202335,2 h 4.3"
     stroke="#000000"
     stroke-width="2"
     stroke-linecap="round"
     stroke-linejoin="round"
     id="path1" />
</svg>
