<?xml version="1.0" encoding="UTF-8" standalone="no"?>
<!-- Uploaded to: SVG Repo, www.svgrepo.com, Generator: SVG Repo Mixer Tools -->

<svg
   width="259.76822"
   height="419.52487"
   viewBox="0 0 7.7930466 12.585746"
   fill="none"
   version="1.1"
   id="svg1"
   xmlns="http://www.w3.org/2000/svg"
   xmlns:svg="http://www.w3.org/2000/svg">
  <defs
     id="defs1" />
  <path
     d="m 1.0001448,2.2242414 v 8.1372996 c 0,0.6058 0,0.9087 0.1198,1.0489 0.10394,0.1218 0.25987,0.1863 0.41943,0.1738 0.18389,-0.0145 0.39808,-0.2287 0.82647,-0.6571 l 4.0686,-4.0685996 c 0.198,-0.198 0.297,-0.297 0.3341,-0.4112 0.0327,-0.1004 0.0327,-0.2086 0,-0.309 -0.0371,-0.1141 -0.1361,-0.2131 -0.3341,-0.4112 l -4.0686,-4.06859 c -0.42839,-0.42837 -0.64258,-0.64256 -0.82647,-0.65703 -0.15956,-0.01256 -0.31549,0.05203 -0.41943,0.17373 -0.1198,0.14026 -0.1198,0.44317 -0.1198,1.04899 z"
     stroke="#000000"
     stroke-width="2"
     stroke-linecap="round"
     stroke-linejoin="round"
     id="path1"
     style="stroke:#000000;stroke-opacity:1" />
</svg>
